<?xml version="1.0" encoding="UTF-8"?>
<svg xmlns="http://www.w3.org/2000/svg" width="1400" height="420" viewBox="0 0 1400 420">
  <defs>
    <linearGradient id="g" x1="0" y1="0" x2="0" y2="1">
      <stop offset="0%" stop-color="#1FB6FF"/>
      <stop offset="55%" stop-color="#0F73C8"/>
      <stop offset="100%" stop-color="#0B2A4A"/>
    </linearGradient>
    <style>
      .a { font-family: Inter, system-ui, -apple-system, "Segoe UI", Roboto, Arial, sans-serif;
           font-weight: 700; font-size: 180px; fill: #0A2A4A; letter-spacing: -1px; }
      .b { font-family: Inter, system-ui, -apple-system, "Segoe UI", Roboto, Arial, sans-serif;
           font-weight: 700; font-size: 160px; fill: #FF7A18; letter-spacing: -0.5px; }
    </style>
  </defs>
  <!-- Mark -->
  <g transform="translate(40,40) scale(0.7)">
    <path d="M256 40 C320 70 386 86 444 100 V256
             C444 364 360 436 256 476
             C152 436 68 364 68 256 V100
             C126 86 192 70 256 40 Z" fill="url(#g)"/>
    <circle cx="256" cy="252" r="104" fill="#EAF6FF"/>
    <circle cx="256" cy="252" r="86" fill="none" stroke="#0A2A4A" stroke-width="16"/>
    <circle cx="256" cy="252" r="14" fill="#0A2A4A"/>
    <circle cx="276" cy="236" r="6" fill="#FF7A18"/>
    <rect x="306" y="320" width="160" height="30" rx="15"
          transform="rotate(45 306 320)" fill="#0A2A4A"/>
  </g>
  <!-- Text -->
  <text x="520" y="260" class="a">ScamIntel</text>
  <text x="1110" y="260" class="b">.report</text>
</svg>
